<?xml version="1.0" encoding="UTF-8"?>
<svg width="67px" height="66px" viewBox="0 0 67 66" version="1.1" xmlns="http://www.w3.org/2000/svg" xmlns:xlink="http://www.w3.org/1999/xlink">
    <!-- Generator: Sketch 53.2 (72643) - https://sketchapp.com -->
    <title>Group 17</title>
    <desc>Created with Sketch.</desc>
    <defs>
        <polygon id="path-1" points="0.9873 0.731 24.1649658 0.731 24.1649658 23.0060139 0.9873 23.0060139"></polygon>
        <polygon id="path-3" points="0.0001 0.335187315 66.528 0.335187315 66.528 41.9998218 0.0001 41.9998218"></polygon>
    </defs>
    <g id="Page-1" stroke="none" stroke-width="1" fill="none" fill-rule="evenodd">
        <g id="Group-17" transform="translate(0.000000, -1.000000)">
            <g id="Group-3" transform="translate(21.000000, 0.269200)">
                <mask id="mask-2" fill="white">
                    <use xlink:href="#path-1"></use>
                </mask>
                <g id="Clip-2"></g>
                <path d="M13.0293,0.7307 L13.0293,0.7307 C13.8883,1.4947 13.0293,3.5027 13.5083,4.4587 C13.6993,5.0307 14.6533,4.8407 15.1333,5.1267 C16.9493,6.0837 18.3823,7.5177 19.5303,9.0457 C22.0133,12.4867 23.1623,16.5007 23.8303,20.7077 C24.0213,21.2817 24.1173,21.8557 24.1173,22.4287 C24.2133,22.8107 24.2133,23.1927 23.6403,22.9057 C20.5813,21.8557 17.3313,21.2817 14.1753,20.9947 C11.4993,20.7077 8.9203,21.0917 6.3393,21.6647 C4.8063,21.9507 3.1843,22.3327 1.7523,22.8107 C1.0803,23.0967 0.9873,22.8107 0.9873,22.3327 C1.1783,20.9947 1.3693,19.7517 1.6553,18.5097 C2.4203,14.8777 3.6613,11.4367 6.0513,8.4727 C7.1983,7.0407 8.4433,5.6047 10.3523,5.0307 C11.7883,4.4587 11.7883,4.4587 11.8813,2.8337 C11.8813,2.0677 11.5973,1.3037 12.1703,0.7307 L13.0293,0.7307 Z" id="Fill-1" fill="#727270" mask="url(#mask-2)"></path>
            </g>
            <path d="M53.9102,22.0292 L53.9102,22.0292 C53.4322,22.0292 53.0502,21.8382 52.5732,21.7422 C50.8532,21.3612 49.1322,21.4562 47.5082,22.0292 C46.4542,22.3162 46.3592,22.3162 46.2632,21.2632 C45.9762,18.3972 45.2132,15.6242 44.1622,12.9462 C43.0142,10.1762 41.3892,7.6912 39.1902,5.5872 C38.9992,5.3962 38.6172,5.3002 38.5222,4.9182 C38.8082,4.7272 38.9992,4.8232 39.2852,4.8232 C46.4542,6.4482 52.5732,12.9462 53.7202,20.2112 C53.7202,20.4022 53.8172,20.4972 53.9102,20.6902 L53.9102,22.0292 Z" id="Fill-4" fill="#67CDFD"></path>
            <g id="Group-8" transform="translate(0.000000, 24.269200)">
                <mask id="mask-4" fill="white">
                    <use xlink:href="#path-3"></use>
                </mask>
                <g id="Clip-7"></g>
                <path d="M33.4571,0.3396 L33.4571,0.3396 C37.9491,0.3396 42.5361,0.4356 47.0271,0.3396 C50.6631,0.2446 53.1461,1.6786 54.4821,5.1196 C54.8681,6.2656 55.5361,7.3186 55.9191,8.4646 C56.7781,12.0976 58.9781,13.3396 62.6101,12.8616 C64.2331,12.6706 66.4341,12.0976 66.5281,15.1566 C66.5281,17.7366 65.4781,18.4056 63.1831,18.3096 C61.0821,18.1186 61.3651,19.7436 61.3651,21.0816 C61.2721,26.8176 61.1741,32.5526 61.3651,38.2866 C61.4641,41.0596 60.5061,42.1106 57.7361,41.9186 C56.3951,41.7286 55.0601,41.7286 53.7201,41.9186 C49.9911,42.3006 47.6991,41.4416 48.4641,37.0456 C48.7501,35.4186 47.7951,34.9416 46.2631,34.9416 C37.5661,35.0366 28.9621,35.0366 20.2651,34.9416 C18.0691,34.9416 17.8751,36.1846 17.9701,37.8096 C18.3521,40.7736 17.3971,42.0146 14.2421,41.9186 C3.5371,41.6326 5.3551,43.1626 5.1641,33.0306 C5.1641,29.0156 5.1641,25.0016 5.2591,20.8896 C5.2591,19.1716 4.8771,18.0236 2.7721,18.3096 C0.3861,18.5026 0.0961,16.9716 0.0001,15.0616 C0.0001,12.8616 1.4361,12.4796 2.9641,12.8616 C7.8411,13.9126 9.7501,11.1406 11.2791,7.0316 C13.5731,0.8186 14.6241,0.3396 21.4121,0.3396 L33.4571,0.3396 Z" id="Fill-6" fill="#727270" mask="url(#mask-4)"></path>
            </g>
            <path d="M12.6192,22.0292 C13.0962,22.0292 13.4782,21.8382 13.9552,21.7422 C15.6782,21.3612 17.3972,21.4562 19.0232,22.0292 C20.0742,22.3162 20.0742,22.3162 20.2652,21.2632 C20.5512,18.3972 21.3152,15.6242 22.3692,12.9462 C23.5152,10.1762 25.1392,7.6912 27.3392,5.5872 C27.5302,5.3962 27.9112,5.3002 27.9112,4.9182 C27.7202,4.7272 27.4332,4.8232 27.2432,4.8232 C20.0742,6.4482 13.9552,12.9462 12.8092,20.2112 C12.8092,20.4022 12.7142,20.4972 12.6192,20.6902 L12.6192,22.0292 Z" id="Fill-9" fill="#67CDFD"></path>
            <path d="M33.2666,40.1899 L33.2666,40.1899 C39.9536,40.1899 46.6456,40.0949 53.4326,40.1899 C56.2046,40.1899 57.3546,39.5219 55.8236,36.6539 C54.6766,34.3579 53.7196,31.9689 52.7636,29.5809 C51.6186,26.9029 49.7046,25.7569 46.7456,25.8519 C39.9536,25.9479 33.0726,25.8519 26.2876,25.8519 C13.3826,25.9479 16.1566,24.4189 10.8006,36.2719 C10.7056,36.4619 10.6096,36.7489 10.5146,36.9399 C9.1776,39.4259 10.2286,40.1899 12.7136,40.1899 L33.2666,40.1899 Z" id="Fill-11" fill="#FEFEFE"></path>
            <path d="M10.8965,43.1537 L10.8965,43.1537 L21.6985,43.1537 C22.1785,43.1537 22.6555,43.5357 22.6555,44.0127 L22.6555,46.8817 C22.6555,47.2637 22.1785,47.6457 21.6985,47.6457 L10.8965,47.6457 C10.4195,47.6457 10.0375,47.2637 10.0375,46.8817 L10.0375,44.0127 C10.0375,43.5357 10.4195,43.1537 10.8965,43.1537" id="Fill-13" fill="#67CDFD"></path>
            <path d="M45.3086,43.1537 L45.3086,43.1537 L56.1096,43.1537 C56.6826,43.1537 57.0646,43.5357 57.0646,44.0127 L57.0646,46.8817 C57.0646,47.2637 56.6826,47.6457 56.1096,47.6457 L45.3086,47.6457 C44.8296,47.6457 44.4496,47.2637 44.4496,46.8817 L44.4496,44.0127 C44.4496,43.5357 44.8296,43.1537 45.3086,43.1537" id="Fill-15" fill="#67CDFD"></path>
        </g>
    </g>
</svg>