<?xml version="1.0" encoding="UTF-8"?>
<svg width="70px" height="69px" viewBox="0 0 70 69" version="1.1" xmlns="http://www.w3.org/2000/svg" xmlns:xlink="http://www.w3.org/1999/xlink">
    <!-- Generator: Sketch 53.2 (72643) - https://sketchapp.com -->
    <title>Group 14</title>
    <desc>Created with Sketch.</desc>
    <defs>
        <polygon id="path-1" points="0.7766 0.809906231 59.4144851 0.809906231 59.4144851 17 0.7766 17"></polygon>
        <polygon id="path-3" points="0 0.1469 16.0104115 0.1469 16.0104115 11.5209 0 11.5209"></polygon>
        <polygon id="path-5" points="0.559324813 0.984 10.8907341 0.984 10.8907341 11.3101 0.559324813 11.3101"></polygon>
    </defs>
    <g id="Page-1" stroke="none" stroke-width="1" fill="none" fill-rule="evenodd">
        <g id="Group-14" transform="translate(0.000000, -1.000000)">
            <g id="Group-3" transform="translate(10.000000, 53.016300)">
                <mask id="mask-2" fill="white">
                    <use xlink:href="#path-1"></use>
                </mask>
                <g id="Clip-2"></g>
                <path d="M59.2766,2.2783 L59.2766,2.2783 C58.8946,1.2283 57.2676,0.6553 55.4536,0.8463 C54.9726,0.9423 54.3996,1.0373 53.9226,1.1323 C51.6306,1.8963 39.9696,5.8153 39.8706,5.9113 L39.5846,6.0063 L39.7756,6.1973 C41.1156,7.2513 41.7836,8.3973 41.4026,9.3513 C41.0206,10.8833 39.1076,11.7423 36.0476,11.9343 C33.1796,12.2203 29.7416,11.9343 25.6296,11.1703 C26.0136,11.1703 26.5866,11.1703 27.0646,11.2653 C30.0256,11.2653 32.7976,11.2653 34.9976,11.0743 C38.3426,10.7873 39.9696,10.0223 40.1616,8.7783 C40.2536,7.9193 39.7756,7.2513 38.6296,6.6763 C37.3886,6.0063 34.7116,5.7193 32.2246,5.2423 C30.4096,4.9563 28.8796,4.7653 27.6366,4.4783 C23.6236,3.4263 19.5136,2.3743 14.6366,2.7573 C13.8726,2.8533 13.1096,2.8533 12.3446,3.0443 C8.7136,3.7143 5.0776,4.5733 1.2566,5.6243 L0.7766,5.7193 L6.4176,13.7503 C7.3726,13.5583 8.4216,13.3663 9.4756,13.2703 C10.8136,13.1753 12.0586,13.1753 13.2046,13.3663 C14.7316,13.6543 18.6516,14.4203 22.3786,15.1843 C26.2056,16.0433 29.9326,16.7123 31.2696,16.9033 C32.1296,17.0003 32.8966,17.0003 33.6606,17.0003 C35.5706,16.8073 37.4836,15.7573 39.2976,14.8013 C39.8706,14.4203 40.4436,14.2293 41.0206,13.8453 L57.6506,4.8603 C59.5636,3.7143 59.5636,2.7573 59.2766,2.2783" id="Fill-1" fill="#727270" mask="url(#mask-2)"></path>
            </g>
            <g id="Group-6" transform="translate(0.000000, 58.016300)">
                <mask id="mask-4" fill="white">
                    <use xlink:href="#path-3"></use>
                </mask>
                <g id="Clip-5"></g>
                <path d="M0.3577,0.1469 L0.3577,0.1469 L7.7207,0.1469 C8.1027,0.1469 8.5807,0.4329 8.7717,0.7199 L15.8437,10.9479 C16.1297,11.2339 16.0357,11.5209 15.6537,11.5209 L8.1987,11.5209 C7.9127,11.5209 7.4307,11.2339 7.2397,10.9479 L0.1667,0.7199 C-0.1203,0.4329 -0.0243,0.1469 0.3577,0.1469" id="Fill-4" fill="#67CDFD" mask="url(#mask-4)"></path>
            </g>
            <path d="M28.3645,22.0319 L28.3645,22.0319 C30.3735,22.1279 32.1875,24.0389 32.0945,26.1419 C31.9005,28.0549 30.0875,29.7739 28.1745,29.6789 C26.0725,29.5829 24.4455,27.8629 24.5415,25.5689 C24.7315,23.5599 26.3585,21.9369 28.3645,22.0319" id="Fill-7" fill="#67CDFD"></path>
            <g id="Group-11" transform="translate(43.000000, 0.016300)">
                <mask id="mask-6" fill="white">
                    <use xlink:href="#path-5"></use>
                </mask>
                <g id="Clip-10"></g>
                <path d="M10.888,6.2441 L10.888,6.2441 C10.888,9.1101 8.593,11.3101 5.725,11.3101 C2.762,11.3101 0.47,8.9191 0.562,5.9571 C0.66,2.9951 2.952,0.8911 5.916,0.9871 C8.689,0.9871 10.981,3.3771 10.888,6.2441" id="Fill-9" fill="#67CDFD" mask="url(#mask-6)"></path>
            </g>
            <path d="M42.0335,21.4591 C41.5555,22.1271 41.0795,22.7961 40.7925,23.4641 C38.9745,27.1941 36.1055,30.1561 33.2415,33.0241 C32.3785,33.8841 32.0955,34.6491 32.0955,35.7971 L32.0955,50.8991 C32.0955,51.9491 32.1875,53.0991 30.7555,53.1931 C29.3225,53.1931 28.9405,52.2371 29.0335,50.9941 C29.0335,48.5081 29.1325,46.0251 29.0335,43.5391 C29.0335,42.9661 29.4185,41.7231 28.2685,41.7231 C27.2195,41.7231 27.6005,42.7751 27.6005,43.4431 C27.5055,45.8341 27.6005,48.3171 27.6005,50.6121 C27.6005,51.8541 27.6955,53.1931 25.9765,53.1931 C24.3495,53.0991 24.5415,51.8541 24.5415,50.8031 L24.5415,37.0381 C24.5415,36.2741 24.8285,35.5101 23.5865,34.1701 C23.5865,36.3701 23.6815,37.9951 23.5865,39.5241 C23.5865,40.4801 23.7775,41.5321 22.3455,41.5321 C21.0995,41.5321 21.1945,40.4801 21.1945,39.6201 C21.1945,37.8991 21.1945,36.0831 21.2915,34.2661 C21.2915,32.3551 22.2495,31.3031 24.2555,31.3991 C25.8825,31.4951 27.6005,31.3991 29.1325,31.3991 C32.0955,31.3991 33.2415,30.3471 34.5785,27.6711 C37.0645,22.7961 39.8345,18.1131 43.1795,13.7171 C44.1375,12.4731 45.3795,11.6131 47.0975,13.1431 C48.0565,14.0031 49.5845,13.9081 50.5425,13.0471 C51.8805,11.8041 52.8345,12.3771 53.8875,13.3341 C55.3205,14.6721 56.2765,16.3911 57.2335,18.0181 C58.8575,20.5981 60.3865,23.1781 62.0125,25.7601 C62.7755,27.0011 63.7315,28.4371 62.0125,29.3921 C60.5765,30.3471 59.9085,28.6281 59.3355,27.6711 C57.9985,25.5691 56.7535,23.4641 55.0345,21.5551 C55.9895,24.8051 57.0395,28.1501 57.9985,31.4951 C58.8575,34.4581 58.4755,35.1281 55.3205,35.0311 C53.6975,34.9361 53.4075,35.6061 53.4075,37.0381 C53.5075,41.2431 53.4075,45.5461 53.5075,49.8481 C53.5075,51.3761 53.5075,53.0991 51.4975,53.0991 C49.5845,53.0991 49.6795,51.3761 49.6795,49.9441 C49.6795,45.7371 49.6795,41.6271 49.5845,37.4201 C49.5845,36.6561 50.2535,35.2241 48.8205,35.1281 C47.1975,35.1281 47.8655,36.5611 47.8655,37.3251 L47.8655,50.3261 C47.8655,51.5671 47.6755,52.8101 46.3355,53.0991 C44.5195,53.4801 44.0435,52.0451 44.0435,50.6121 C44.0435,46.2161 43.9465,41.8181 44.0435,37.3251 C44.1375,35.6061 43.6605,34.9361 41.7475,35.0311 C39.1665,35.1281 38.6875,34.3631 39.3605,31.9731 C40.3145,28.5331 41.3655,25.1871 42.3205,21.7461 C42.2245,21.6501 42.1295,21.6501 42.0335,21.4591" id="Fill-12" fill="#727270"></path>
        </g>
    </g>
</svg>