<?xml version="1.0" encoding="UTF-8"?>
<svg width="72px" height="64px" viewBox="0 0 72 64" version="1.1" xmlns="http://www.w3.org/2000/svg" xmlns:xlink="http://www.w3.org/1999/xlink">
    <!-- Generator: Sketch 53.2 (72643) - https://sketchapp.com -->
    <title>Group 7</title>
    <desc>Created with Sketch.</desc>
    <defs>
        <polygon id="path-1" points="0.2377 0.975 43.1547 0.975 43.1547 44.1003 0.2377 44.1003"></polygon>
        <polygon id="path-3" points="0.0004 0.123653102 71.768 0.123653102 71.768 20 0.0004 20"></polygon>
    </defs>
    <g id="Page-1" stroke="none" stroke-width="1" fill="none" fill-rule="evenodd">
        <g id="Group-7" transform="translate(0.000000, -1.000000)">
            <g id="Group-3" transform="translate(12.000000, 0.024900)">
                <mask id="mask-2" fill="white">
                    <use xlink:href="#path-1"></use>
                </mask>
                <g id="Clip-2"></g>
                <path d="M27.3847,24.6963 L27.3847,24.6963 L27.3847,27.4693 C37.8037,33.4903 43.1547,30.5293 43.1547,44.1003 L22.0307,44.1003 L21.7437,44.1003 L0.2377,44.1003 C0.2377,29.9533 5.4927,33.4903 16.0077,27.4693 L16.0077,25.0783 C14.0977,23.7413 13.7157,21.4463 13.1387,18.9623 L13.0467,18.9623 C12.7567,18.9623 12.5667,18.4833 12.5667,18.0053 L12.5667,17.8143 C12.3757,17.4323 12.2797,17.0503 12.0887,16.5723 C11.8977,15.8073 11.2297,14.2783 11.8027,13.6093 C12.2797,13.1323 12.6647,13.6093 12.6647,13.6093 C11.8977,9.5943 10.9437,4.3363 16.4857,2.8083 C16.4857,-0.6337 29.3897,0.8963 31.0137,6.3443 C31.6857,8.5423 30.8227,13.5133 30.8227,13.5133 C30.9217,13.2273 31.2077,13.1323 31.4937,13.3223 C32.2587,13.8003 31.4937,15.9023 31.3027,16.5723 C31.1127,17.1453 30.9217,17.5283 30.7307,17.9093 L30.7307,18.0053 C30.7307,18.4833 30.5397,18.9623 30.2487,18.9623 C29.6767,21.1603 29.1037,23.5503 27.3847,24.6963" id="Fill-1" fill="#67CDFD" mask="url(#mask-2)"></path>
            </g>
            <g id="Group-6" transform="translate(0.000000, 45.024900)">
                <mask id="mask-4" fill="white">
                    <use xlink:href="#path-3"></use>
                </mask>
                <g id="Clip-5"></g>
                <path d="M71.6894,1.9668 C71.2144,0.7258 69.2064,-0.0382 66.9114,0.1528 C66.3374,0.2478 65.6694,0.3438 65.0974,0.5348 C62.3234,1.3938 48.0824,6.3648 47.8904,6.4608 L47.6044,6.4608 L47.7954,6.7488 C49.4184,8.0858 50.1864,9.5198 49.8034,10.6678 C49.3234,12.3858 47.0314,13.5338 43.1124,13.8218 C39.7674,14.0128 35.4654,13.8218 30.4944,12.8638 L32.2124,12.8638 C35.8484,12.8638 39.2864,12.8638 41.8674,12.6728 C45.9774,12.3858 47.9864,11.5268 48.1764,9.9018 C48.3684,8.8498 47.7954,7.9898 46.3594,7.3218 C44.7364,6.5558 41.5814,6.0788 38.4264,5.5998 C36.3254,5.2168 34.3174,5.0268 32.8844,4.6448 C28.0074,3.3068 22.9434,1.9668 16.9194,2.4458 C16.0604,2.6368 15.0094,2.7328 14.2464,2.8288 C9.6554,3.6898 5.2594,4.7398 0.5774,6.0788 L0.0004,6.1738 L6.8824,16.0178 C8.1274,15.8278 9.3694,15.5408 10.6104,15.4458 C12.2374,15.2548 13.7644,15.3498 15.2964,15.5408 C17.1104,15.8278 21.8924,16.7838 26.4794,17.7408 C31.1624,18.7908 35.6574,19.6508 37.3764,19.8418 C38.3314,20.0328 39.2864,20.0328 40.2444,19.9378 C42.5404,19.7458 44.9264,18.5048 47.1264,17.3588 C47.8904,16.8798 48.6554,16.4958 49.2274,16.1138 L69.6834,5.1218 C71.8834,3.7848 71.8834,2.5418 71.6894,1.9668" id="Fill-4" fill="#727270" mask="url(#mask-4)"></path>
            </g>
        </g>
    </g>
</svg>