<?xml version="1.0" encoding="UTF-8"?>
<svg width="76px" height="73px" viewBox="0 0 76 73" version="1.1" xmlns="http://www.w3.org/2000/svg" xmlns:xlink="http://www.w3.org/1999/xlink">
    <!-- Generator: Sketch 53.2 (72643) - https://sketchapp.com -->
    <title>Group 11</title>
    <desc>Created with Sketch.</desc>
    <g id="Page-1" stroke="none" stroke-width="1" fill="none" fill-rule="evenodd">
        <g id="Group-11">
            <path d="M48.7529,36.7055 L48.7529,36.7055 L48.7529,36.6095 L48.7529,35.6535 L51.4279,35.6535 C50.0899,34.4105 48.5629,33.0725 47.2229,31.8295 L47.2229,24.7565 C47.2229,24.2775 46.8399,23.8955 46.3629,23.8955 L43.2079,23.8955 C42.7299,23.8955 42.3489,24.2775 42.3489,24.7565 L42.3489,27.4325 C41.1069,26.2865 39.8619,25.1385 38.6209,23.9905 C38.1439,23.5135 37.8539,23.5135 37.3789,23.9905 C33.2669,27.6235 29.1559,31.2555 25.0469,34.8875 C24.7599,35.0785 24.4739,35.3665 24.1879,35.6535 L26.2889,35.6535 L26.2889,36.6095 L26.2889,37.0875 L26.2889,48.2695 C26.2889,48.8435 26.3869,48.9385 26.9599,48.9385 L33.4579,48.9385 C33.9349,48.9385 34.1259,48.7475 34.1259,48.2695 C34.0329,46.4545 34.1259,44.5425 34.1259,42.6315 C34.1259,41.5795 34.7019,41.0055 35.7519,40.9105 L38.7159,40.9105 C40.5299,40.9105 41.0079,41.4835 41.0079,43.3015 L41.0079,48.3655 C41.0079,48.7475 41.1069,48.9385 41.5839,48.9385 L47.9889,48.9385 C48.5629,48.9385 48.7529,48.8435 48.7529,48.4615 L48.7529,45.9765 L48.7529,36.7055 Z" id="Fill-1" fill="#727270"></path>
            <path d="M6.2178,14.6254 L6.2178,14.6254 C6.5998,15.6754 8.2228,16.2494 10.0408,16.0584 C10.5188,16.0584 11.0918,15.9624 11.5688,15.7714 C13.8638,15.1034 25.4298,11.0884 25.5248,10.9934 L25.8108,10.8964 L25.6188,10.8004 C24.2828,9.6524 23.6138,8.5064 23.9968,7.5524 C24.3788,6.1164 26.2888,5.2574 29.3478,5.0664 C32.1198,4.7794 35.6568,5.0664 39.6708,5.8304 C39.2888,5.8304 38.7158,5.8304 38.2388,5.7344 C35.2758,5.7344 32.5988,5.7344 30.3988,5.9254 C27.0518,6.2124 25.4298,6.8824 25.2388,8.2204 C25.1428,9.0804 25.6188,9.7484 26.7698,10.2284 C28.0108,10.8964 30.5888,11.2804 33.1708,11.6614 C34.8928,11.9484 36.5168,12.1394 37.6628,12.5214 C41.6808,13.4764 45.7898,14.6254 50.6628,14.2424 C51.4278,14.1464 52.1918,14.0514 52.8628,13.8594 C56.5908,13.2854 60.1268,12.4264 63.9498,11.2804 L64.4278,11.2804 L58.7908,3.2504 C57.8318,3.4404 56.7808,3.6314 55.8268,3.7274 C54.4868,3.8244 53.2448,3.8244 51.9998,3.6314 C50.4728,3.3454 46.6498,2.5794 42.9208,1.8154 C39.0978,0.9564 35.4658,0.2884 34.0328,0.0954 C33.2668,0.0004 32.5018,0.0004 31.7388,0.0004 C29.8238,0.1924 27.9148,1.2434 26.0978,2.1024 C25.5248,2.5794 24.9508,2.7714 24.3788,3.1544 L7.8408,12.0434 C6.0278,13.1894 6.0278,14.1464 6.2178,14.6254" id="Fill-3" fill="#727270"></path>
            <path d="M75.3242,12.0439 L75.3242,12.0439 L67.8702,12.0439 C67.5832,12.0439 67.1052,11.7569 66.9142,11.4709 L59.8412,1.3379 C59.6502,0.9569 59.6502,0.6699 60.0322,0.6699 L67.4872,0.6699 C67.7732,0.6699 68.2512,0.9569 68.4422,1.3379 L75.5152,11.4709 C75.7072,11.7569 75.6102,12.0439 75.3242,12.0439" id="Fill-5" fill="#67CDFD"></path>
            <path d="M68.7295,57.9257 L68.7295,57.9257 C68.3465,56.9687 66.7235,56.3937 64.8095,56.4897 C64.3335,56.5867 63.8555,56.6817 63.3765,56.7777 C61.0825,57.5437 49.5175,61.5577 49.3265,61.5577 L49.1355,61.6537 L49.3265,61.8437 C50.5685,62.8947 51.2365,64.1367 50.9495,65.0947 C50.5685,66.4307 48.6555,67.2927 45.5035,67.5787 C42.7295,67.7697 39.2895,67.5787 35.1795,66.8137 L36.6125,66.8137 C39.5765,66.8137 42.3485,66.8137 44.5445,66.7177 C47.8905,66.4307 49.4215,65.6677 49.7085,64.4237 C49.7085,63.5627 49.3265,62.8947 48.0825,62.3217 C46.8395,61.6537 44.2615,61.3667 41.6805,60.8887 C39.9575,60.6967 38.4295,60.4097 37.1885,60.1237 C33.1705,59.0717 29.0615,58.0207 24.2835,58.4027 C23.5165,58.4987 22.7515,58.5937 22.0835,58.6897 C18.3555,59.3577 14.7235,60.2187 10.9955,61.2707 L10.5185,61.3667 L16.1595,69.3947 C17.0185,69.2037 18.1645,69.0127 19.1205,68.9177 C20.4595,68.7267 21.7015,68.8217 22.8505,69.0127 C24.3785,69.2037 28.2965,69.9677 31.9285,70.7317 C35.7515,71.5927 39.4805,72.2627 40.8165,72.5497 C41.6805,72.6447 42.3485,72.6447 43.2085,72.5497 C45.0255,72.4537 47.0315,71.4017 48.8485,70.4457 C49.3265,70.0637 49.9955,69.7767 50.4725,69.4897 L67.1055,60.6007 C68.9195,59.4537 68.9195,58.4987 68.7295,57.9257" id="Fill-7" fill="#727270"></path>
            <path d="M0.2901,60.5053 L7.7461,60.5053 C8.0321,60.5053 8.5091,60.6963 8.7031,61.0803 L15.7771,71.2113 C16.0611,71.4973 15.9691,71.7853 15.5831,71.7853 L8.2231,71.7853 C7.8411,71.7853 7.3631,71.4973 7.1731,71.2113 L0.1001,61.0803 C-0.0919,60.6963 0.0041,60.5053 0.2901,60.5053" id="Fill-9" fill="#67CDFD"></path>
        </g>
    </g>
</svg>