<?xml version="1.0" encoding="UTF-8"?>
<svg width="72px" height="25px" viewBox="0 0 72 25" version="1.1" xmlns="http://www.w3.org/2000/svg" xmlns:xlink="http://www.w3.org/1999/xlink">
    <!-- Generator: Sketch 53.2 (72643) - https://sketchapp.com -->
    <title>Group 8</title>
    <desc>Created with Sketch.</desc>
    <defs>
        <polygon id="path-1" points="0.71147286 0.8161 68.782 0.8161 68.782 25 0.71147286 25"></polygon>
    </defs>
    <g id="Page-1" stroke="none" stroke-width="1" fill="none" fill-rule="evenodd">
        <g id="Group-8" transform="translate(0.000000, -1.000000)">
            <polygon id="Fill-1" fill="#67CDFD" points="0 10.0798 3.437 17.2488 11.275 16.6748 2.387 8.9328"></polygon>
            <g id="Group-7" transform="translate(3.000000, 0.183600)">
                <path d="M43.4512,14.4858 L43.4512,14.4858 C42.8782,15.8218 42.7832,16.0138 42.0182,16.4908 C42.1142,15.7268 42.3052,15.0588 42.1142,14.3898 C42.0182,14.0078 41.9232,13.6248 41.8272,13.3378 C41.4462,12.4768 41.2542,12.4768 40.7772,13.2428 C39.7232,14.6768 39.8222,16.7788 40.9682,18.3088 C41.0632,18.4038 41.2542,18.5948 41.2542,18.9768 C40.1052,18.8818 39.0552,18.5948 38.1952,17.6408 C37.1452,16.3958 37.2402,14.8678 37.5272,13.3378 C38.0042,13.5288 38.0042,13.9128 38.2912,14.1988 C38.5772,14.5818 38.7682,14.5818 39.0552,14.1038 C39.2462,13.5288 39.2462,13.0508 39.0552,12.5718 C38.6732,11.7128 38.7682,10.9488 39.0552,10.1848 C39.5332,8.9398 40.2042,7.9858 41.0632,7.1258 C41.1592,7.0298 41.2542,6.8398 41.4462,6.8398 C41.6372,6.9348 41.6372,7.1258 41.6372,7.3168 C41.6372,7.9858 42.0182,8.4628 42.4002,9.0358 C43.0692,10.1848 43.6422,11.2358 43.0692,12.5718 C43.6422,12.1908 43.8332,11.9038 44.2182,10.6618 C45.1732,11.8078 45.6512,12.9558 45.1732,14.4858 C45.6512,14.1988 45.8422,13.7208 46.1282,13.2428 C47.5612,15.6318 45.5552,18.7858 42.3052,18.9768 C43.6422,17.7358 43.9322,16.2998 43.4512,14.4858" id="Fill-2" fill="#67CDFD"></path>
                <g id="Group-6">
                    <mask id="mask-2" fill="white">
                        <use xlink:href="#path-1"></use>
                    </mask>
                    <g id="Clip-5"></g>
                    <path d="M0.9185,18.9771 C-1.0905,19.0731 12.1015,24.7141 15.4475,25.0001 C15.4475,25.0001 41.7325,23.6621 53.2965,22.8961 C56.3565,22.8001 59.3195,22.6101 62.3795,22.4181 C64.2895,22.3231 68.8795,20.3161 68.7805,18.2131 C68.7805,16.3001 64.2895,14.9631 62.2835,15.0591 L47.6595,15.9181 C47.5615,16.1091 47.4685,16.2051 47.3695,16.3951 C46.8965,17.2571 46.1285,18.0221 45.2685,18.5001 C44.6005,18.9771 43.7405,19.2641 42.8785,19.3591 C42.6875,19.3591 42.5915,19.4551 42.4005,19.4551 L42.4005,19.3591 L41.2545,19.3591 C40.4905,19.3591 39.7235,19.2641 39.0545,18.9771 C38.2915,18.6911 37.7185,18.2131 37.0495,17.5451 C36.2855,16.6841 35.9955,15.6321 35.8995,14.6771 C35.8045,14.1031 35.8995,13.5291 35.8995,13.0511 L19.5575,0.8161 L16.4025,2.7271 L23.1895,17.3541 C16.1155,17.9271 3.2105,18.8811 0.9185,18.9771" id="Fill-4" fill="#727270" mask="url(#mask-2)"></path>
                </g>
            </g>
        </g>
    </g>
</svg>